<svg xmlns="http://www.w3.org/2000/svg" version="1.1" xmlns:xlink="http://www.w3.org/1999/xlink" xmlns:svgjs="http://svgjs.com/svgjs" width="512" height="512" x="0" y="0" viewBox="0 0 682.667 682.667" style="enable-background:new 0 0 512 512" xml:space="preserve" class=""><g><defs><clipPath id="a" clipPathUnits="userSpaceOnUse"><path d="M0 512h512V0H0Z" fill="#7785db" data-original="#000000" class="" opacity="1"></path></clipPath></defs><g clip-path="url(#a)" transform="matrix(1.33333 0 0 -1.33333 0 682.667)"><path d="M0 0c5.52 0 10-4.48 10-10S5.52-20 0-20s-10 4.48-10 10S-5.52 0 0 0" style="fill-opacity:1;fill-rule:nonzero;stroke:none" transform="translate(256 276)" fill="#7785db" data-original="#000000" class="" opacity="1"></path><path d="M0 0h-176c-1.34 0-2.66.09-3.95.27C-194.65 2.19-206 14.77-206 30c0 16.57 13.43 30 30 30h432c16.57 0 30-13.43 30-30 0-15.23-11.35-27.81-26.05-29.73C258.66.09 257.34 0 256 0H80" style="stroke-width:20;stroke-linecap:round;stroke-linejoin:round;stroke-miterlimit:10;stroke-dasharray:none;stroke-opacity:1" transform="translate(216 266)" fill="none" stroke="#7785db" stroke-width="20" stroke-linecap="round" stroke-linejoin="round" stroke-miterlimit="10" stroke-dasharray="none" stroke-opacity="" data-original="#000000" opacity="1" class=""></path><path d="M0 0c-.91 0-1.801-.06-2.681-.18-8.479-1.14-15.429-7.62-17-16.24L-53.7-203.58C-55.431-213.09-63.721-220-73.381-220H-372c-9.661 0-17.95 6.91-19.681 16.42L-425.7-16.42A20.005 20.005 0 0 1-445.38 0" style="stroke-width:20;stroke-linecap:round;stroke-linejoin:round;stroke-miterlimit:10;stroke-dasharray:none;stroke-opacity:1" transform="translate(478.69 266)" fill="none" stroke="#7785db" stroke-width="20" stroke-linecap="round" stroke-linejoin="round" stroke-miterlimit="10" stroke-dasharray="none" stroke-opacity="" data-original="#000000" opacity="1" class=""></path><path d="m0 0-83.49 110.28c-5.369 9.66-1.89 21.84 7.761 27.2 9.679 5.36 21.859 1.88 27.2-7.76L45.76 0" style="stroke-width:20;stroke-linecap:round;stroke-linejoin:round;stroke-miterlimit:10;stroke-dasharray:none;stroke-opacity:1" transform="translate(362.01 326)" fill="none" stroke="#7785db" stroke-width="20" stroke-linecap="round" stroke-linejoin="round" stroke-miterlimit="10" stroke-dasharray="none" stroke-opacity="" data-original="#000000" opacity="1" class=""></path><path d="m0 0 94.29 129.72c5.36 9.64 17.52 13.12 27.2 7.76 9.65-5.36 13.13-17.54 7.76-27.2L45.76 0" style="stroke-width:20;stroke-linecap:round;stroke-linejoin:round;stroke-miterlimit:10;stroke-dasharray:none;stroke-opacity:1" transform="translate(104.23 326)" fill="none" stroke="#7785db" stroke-width="20" stroke-linecap="round" stroke-linejoin="round" stroke-miterlimit="10" stroke-dasharray="none" stroke-opacity="" data-original="#000000" opacity="1" class=""></path><path d="M0 0c-11.05 0-20 8.95-20 20v80c0 11.05 8.95 20 20 20 5.52 0 10.52-2.24 14.14-5.86C17.76 110.52 20 105.52 20 100V20C20 8.95 11.05 0 0 0Z" style="stroke-width:20;stroke-linecap:round;stroke-linejoin:round;stroke-miterlimit:10;stroke-dasharray:none;stroke-opacity:1" transform="translate(256 96)" fill="none" stroke="#7785db" stroke-width="20" stroke-linecap="round" stroke-linejoin="round" stroke-miterlimit="10" stroke-dasharray="none" stroke-opacity="" data-original="#000000" opacity="1" class=""></path><path d="M0 0c-11.05 0-20 8.95-20 20v80c0 11.05 8.95 20 20 20 5.52 0 10.52-2.24 14.14-5.86C17.76 110.52 20 105.52 20 100V20C20 8.95 11.05 0 0 0Z" style="stroke-width:20;stroke-linecap:round;stroke-linejoin:round;stroke-miterlimit:10;stroke-dasharray:none;stroke-opacity:1" transform="translate(356 96)" fill="none" stroke="#7785db" stroke-width="20" stroke-linecap="round" stroke-linejoin="round" stroke-miterlimit="10" stroke-dasharray="none" stroke-opacity="" data-original="#000000" opacity="1" class=""></path><path d="M0 0c-11.05 0-20 8.95-20 20v80c0 11.05 8.95 20 20 20 5.52 0 10.52-2.24 14.14-5.86C17.76 110.52 20 105.52 20 100V20C20 8.95 11.05 0 0 0Z" style="stroke-width:20;stroke-linecap:round;stroke-linejoin:round;stroke-miterlimit:10;stroke-dasharray:none;stroke-opacity:1" transform="translate(156 96)" fill="none" stroke="#7785db" stroke-width="20" stroke-linecap="round" stroke-linejoin="round" stroke-miterlimit="10" stroke-dasharray="none" stroke-opacity="" data-original="#000000" opacity="1" class=""></path></g></g></svg>